<?xml version="1.0" standalone="no"?>
<!DOCTYPE svg PUBLIC "-//W3C//DTD SVG 20010904//EN"
	"http://www.w3.org/TR/2001/REC-SVG-20010904/DTD/svg10.dtd">
<svg version="1.0" xmlns="http://www.w3.org/2000/svg"
     width="700.000000pt" height="700.000000pt" viewBox="0 0 700.000000 700.000000"
     preserveAspectRatio="xMidYMid meet">
	<metadata>
		Created by potrace 1.14, written by Peter Selinger 2001-2017
	</metadata>
	<g transform="translate(0.000000,700.000000) scale(0.100000,-0.100000)"
	   fill="#000000" stroke="none">
		<path d="M1045 6985 c-185 -29 -370 -102 -522 -207 -99 -68 -233 -202 -301
-301 -76 -110 -148 -268 -185 -404 l-32 -118 -3 -2390 c-2 -1729 0 -2416 8
-2483 33 -270 154 -523 340 -711 106 -108 196 -173 335 -241 132 -65 221 -93
365 -115 143 -22 4757 -22 4900 0 136 21 230 49 347 105 184 87 340 215 461
375 66 87 164 285 192 385 52 188 50 89 50 2620 0 2532 2 2434 -50 2620 -28
99 -106 261 -172 357 -68 99 -202 233 -301 301 -96 66 -258 144 -357 172 -187
52 -86 50 -2630 49 -1847 -1 -2383 -4 -2445 -14z m3825 -1846 c419 -39 747
-144 1068 -343 l92 -57 -1 -337 c0 -185 -4 -356 -7 -380 l-7 -42 -100 62
c-208 128 -452 230 -675 282 -190 44 -269 51 -560 51 -227 0 -290 -3 -360 -18
-462 -99 -806 -385 -953 -792 -59 -164 -70 -249 -70 -515 0 -269 8 -326 65
-488 126 -360 390 -627 748 -757 167 -60 268 -77 502 -82 529 -13 870 78 1324
353 67 41 125 74 128 74 3 0 6 -173 6 -384 l0 -384 -107 -70 c-212 -137 -435
-231 -693 -291 -287 -66 -690 -86 -984 -50 -247 30 -547 115 -738 207 -614
298 -1010 881 -1079 1587 -18 182 -7 580 20 727 101 556 389 1006 831 1302
276 185 655 311 1050 349 84 9 395 6 500 -4z"/>
	</g>
</svg>
