<svg width="30" height="30" viewBox="0 0 30 30" fill="none" xmlns="http://www.w3.org/2000/svg">
	<path fill-rule="evenodd"
	      clip-rule="evenodd"
	      d="M19.2639 12.4652H17.4327V4.67348H19.9641C21.4841 4.67348 22.5973 4.98463 23.3033 5.60705C24.0215 6.22947 24.3806 7.19292 24.3806 8.49751C24.3806 9.79014 23.9557 10.7776 23.1059 11.4598C22.2561 12.1301 20.9754 12.4652 19.2639 12.4652ZM27.3429 14.7812C29.1142 13.2851 30 11.1247 30 8.29999C30 5.58315 29.1681 3.54239 27.5045 2.17794C25.8528 0.801539 23.435 0.113281 20.2513 0.113281H11.8671V16.8937C13.7444 18.4745 14.9372 20.8422 14.9372 23.4885C14.9372 24.4957 14.7644 25.4626 14.4468 26.3611H17.4327V17.0254H19.8204C23.0759 17.0254 25.5834 16.2773 27.3429 14.7812Z"
	      fill="#121212"/>
	<path fill-rule="evenodd"
	      clip-rule="evenodd"
	      d="M6.31956 17.2474C2.82944 17.2474 0 20.0769 0 23.567C0 27.0571 2.82944 29.8866 6.31956 29.8866C9.80969 29.8866 12.6391 27.0571 12.6391 23.567C12.6391 20.0769 9.80969 17.2474 6.31956 17.2474ZM6.89407 25.865C6.89407 26.0174 6.83354 26.1634 6.7258 26.2712C6.61807 26.379 6.47193 26.4395 6.31956 26.4395C6.16719 26.4395 6.02106 26.379 5.91333 26.2712C5.80559 26.1634 5.74506 26.0174 5.74506 25.865V24.1415H4.02154C3.86917 24.1415 3.72304 24.081 3.61531 23.9732C3.50757 23.8654 3.44704 23.7194 3.44704 23.567C3.44704 23.4146 3.50757 23.2685 3.61531 23.1607C3.72304 23.0529 3.86917 22.9925 4.02154 22.9925H5.74506V21.269C5.74506 21.1166 5.80559 20.9705 5.91333 20.8627C6.02106 20.7549 6.16719 20.6945 6.31956 20.6945C6.47193 20.6945 6.61807 20.7549 6.7258 20.8627C6.83354 20.9705 6.89407 21.1166 6.89407 21.269V22.9925H8.61759C8.76996 22.9925 8.91609 23.0529 9.02382 23.1607C9.13156 23.2685 9.19209 23.4146 9.19209 23.567C9.19209 23.7194 9.13156 23.8654 9.02382 23.9732C8.91609 24.081 8.76996 24.1415 8.61759 24.1415H6.89407V25.865Z"
	      fill="#121212"/>
</svg>
