<svg width="30" height="30" viewBox="0 0 30 30" fill="none" xmlns="http://www.w3.org/2000/svg">
	<path fill-rule="evenodd"
	      clip-rule="evenodd"
	      d="M16.8936 27.5093H20.2497V4.85463H27.7197V0H6.9467V4.85463H14.4167V16.1399C16.5568 17.7915 17.9353 20.382 17.9353 23.2944C17.9353 24.8167 17.5587 26.251 16.8936 27.5093Z"
	      fill="#121212"/>
	<path fill-rule="evenodd"
	      clip-rule="evenodd"
	      d="M8.90357 16.7534C5.24571 16.7534 2.28029 19.7188 2.28029 23.3767C2.28029 27.0346 5.24571 30 8.90357 30C12.5614 30 15.5269 27.0346 15.5269 23.3767C15.5269 19.7188 12.5614 16.7534 8.90357 16.7534ZM9.50569 25.7852C9.50569 25.9449 9.44225 26.0979 9.32933 26.2109C9.21642 26.3238 9.06327 26.3873 8.90357 26.3873C8.74388 26.3873 8.59073 26.3238 8.47782 26.2109C8.3649 26.0979 8.30146 25.9449 8.30146 25.7852V23.9788H6.49511C6.33541 23.9788 6.18226 23.9154 6.06935 23.8024C5.95643 23.6894 5.89299 23.5364 5.89299 23.3767C5.89299 23.217 5.95643 23.0638 6.06935 22.9509C6.18226 22.8379 6.33541 22.7746 6.49511 22.7746H8.30146V20.9682C8.30146 20.8086 8.3649 20.6554 8.47782 20.5424C8.59073 20.4295 8.74388 20.3661 8.90357 20.3661C9.06327 20.3661 9.21642 20.4295 9.32933 20.5424C9.44225 20.6554 9.50569 20.8086 9.50569 20.9682V22.7746H11.312C11.4717 22.7746 11.6249 22.8379 11.7378 22.9509C11.8507 23.0638 11.9142 23.217 11.9142 23.3767C11.9142 23.5364 11.8507 23.6894 11.7378 23.8024C11.6249 23.9154 11.4717 23.9788 11.312 23.9788H9.50569V25.7852Z"
	      fill="#121212"/>
</svg>
