<svg width="30" height="30" viewBox="0 0 30 30" fill="none" xmlns="http://www.w3.org/2000/svg">
	<path fill-rule="evenodd"
	      clip-rule="evenodd"
	      d="M15.3565 6.04539C16.3485 4.68131 17.7488 3.99927 19.5572 3.99927C20.3839 3.99927 21.2262 4.14907 22.0839 4.44877C22.9416 4.74847 23.7941 5.09986 24.6415 5.50283L26.1916 1.59661C23.9698 0.532238 21.7584 0 19.5572 0C17.3974 0 15.5115 0.475393 13.8994 1.42608C12.2977 2.36645 11.0679 3.72537 10.2102 5.50283C9.3525 7.26988 8.92365 9.33157 8.92365 11.6877C8.92365 13.7345 9.18505 15.5214 9.70787 17.0484C13.1383 17.25 15.944 19.7756 16.5731 23.0733C17.3598 23.223 18.2047 23.2978 19.1077 23.2978C21.4019 23.2978 23.4789 22.9103 25.339 22.1352V18.105C23.076 18.9007 21.1487 19.2986 19.5572 19.2986C15.7647 19.2986 13.8684 16.772 13.8684 11.7187C13.8684 9.29021 14.3644 7.39915 15.3565 6.04539Z"
	      fill="#121212"/>
	<path fill-rule="evenodd"
	      clip-rule="evenodd"
	      d="M9.26467 19.0874C6.2513 19.0874 3.80836 21.5303 3.80836 24.5437C3.80836 27.5571 6.2513 30 9.26467 30C12.278 30 14.721 27.5571 14.721 24.5437C14.721 21.5303 12.278 19.0874 9.26467 19.0874ZM9.7607 26.5278C9.7607 26.6594 9.70844 26.7855 9.61541 26.8785C9.5224 26.9716 9.39623 27.0238 9.26467 27.0238C9.13311 27.0238 9.00695 26.9716 8.91393 26.8785C8.8209 26.7855 8.76864 26.6594 8.76864 26.5278V25.0397H7.28056C7.149 25.0397 7.02283 24.9875 6.92982 24.8944C6.83679 24.8013 6.78453 24.6753 6.78453 24.5437C6.78453 24.4122 6.83679 24.286 6.92982 24.1929C7.02283 24.0999 7.149 24.0477 7.28056 24.0477H8.76864V22.5596C8.76864 22.4281 8.8209 22.3019 8.91393 22.2088C9.00695 22.1158 9.13311 22.0636 9.26467 22.0636C9.39623 22.0636 9.5224 22.1158 9.61541 22.2088C9.70844 22.3019 9.7607 22.4281 9.7607 22.5596V24.0477H11.2488C11.3803 24.0477 11.5065 24.0999 11.5995 24.1929C11.6925 24.286 11.7448 24.4122 11.7448 24.5437C11.7448 24.6753 11.6925 24.8013 11.5995 24.8944C11.5065 24.9875 11.3803 25.0397 11.2488 25.0397H9.7607V26.5278Z"
	      fill="#121212"/>
</svg>
