<svg xmlns="http://www.w3.org/2000/svg" viewBox="0 0 890 247.61">
	<defs>
		<style>.cls-1 {
			fill: none;
		}

		.cls-2 {
			fill: #FFF;
		}

		.cls-3 {
			fill: #59C5B9;
		}</style>
	</defs>
	<g id="Layer_2" data-name="Layer 2">
		<g id="Layer_1-2" data-name="Layer 1">
			<rect class="cls-1" width="890" height="247.61"/>
			<path class="cls-2"
			      d="M860,75.71A79.44,79.44,0,0,0,842,51.4c-14.11-13.55-32.53-22-56-25.81-6.46-1-8-1.08-48.19-1.25l-41.51-.18V223.55l40.06-.18c35-.15,40.83-.28,46.09-1,17.49-2.47,31.93-7,43.59-13.62,29.13-16.6,44-45.33,44-85C870,104.64,866.85,89.54,860,75.71ZM797.64,181.22c-11.45,5.81-22.79,7.62-47.84,7.63H737.16v-130h16.15c8.87,0,18.24.23,20.81.5,24.69,2.69,42.78,16.5,50.59,38.64,2.46,7,3.45,12.68,3.76,21.75,1,29.29-9.76,50.76-30.83,61.44Z"/>
			<path class="cls-2"
			      d="M637.52,223.05c0,.26-7.75.44-18.54.44H600.43l-.51-1.33c-.28-.72-1.13-2.94-1.86-4.93s-6.69-17.34-13.19-34.11-11.71-30.69-11.57-30.93,8.38-.42,18.3-.42h18l.46,1.08c.26.6,3.48,8.77,7.16,18.18s9.75,24.83,13.49,34.34S637.52,222.81,637.52,223.05Z"/>
			<path class="cls-2"
			      d="M557.61,24.21l-1,2.56c-1,2.41-5.24,13.47-12.51,32.33-1.84,4.75-3.52,8.86-3.76,9.15s-2.52,6.15-5.08,13c-5.59,15-15.8,41.5-37.55,97.71-8.92,23-16.43,42.48-16.7,43.2l-.48,1.33H461.73c-17.66,0-18.77-.06-18.54-.85.11-.46,6.46-16.64,14.1-36l19.54-49.58c7.26-18.49,20.24-51.41,33.78-85.8l10.67-27.09Z"/>
			<path class="cls-3"
			      d="M319.2,188.85H256.45L249.9,205.1c-3.61,8.94-6.7,16.63-6.87,17.08-.29.81,2.79.85,62.6.73l62.91-.11,6.69-16.56c3.69-9.12,6.7-16.76,6.7-17S353.7,188.83,319.2,188.85Z"/>
			<path class="cls-3"
			      d="M384.7,21l-62.7.11-6.84,16.86c-3.76,9.26-6.85,17-6.85,17.2s28.21.36,62.68.36h62.73l6.84-17c3.77-9.34,6.84-17.13,6.84-17.34S419.18,20.89,384.7,21Z"/>
			<path class="cls-3"
			      d="M289.13,105.08l-6.8,16.82c-3.71,9.26-6.77,17-6.77,17.1s28.39.2,63.1.14l63.09-.12,6.7-16.57c3.68-9.11,6.69-16.75,6.69-17s-28.34-.4-63-.4Z"/>
			<path class="cls-2"
			      d="M198.54,168.2v38.21l-4.44,3a85.82,85.82,0,0,1-15.28,8.43,119,119,0,0,1-35.86,9h0c-5.46.56-19.35,1-23.34.7-30.18-1.93-53.32-11.36-71.15-29-15.53-15.35-25-35.54-27.78-59.2a174.33,174.33,0,0,1,0-31c3.24-28,16.36-51.64,37.43-67.49,20-15,47.48-22.44,76.29-20.61C158,21.76,175.74,27.18,192.64,38l4,2.55V59.34c0,10.34-.13,18.79-.29,18.79a50.66,50.66,0,0,1-4.45-2.75,108.81,108.81,0,0,0-39.1-15.5c-12.09-2.19-29.56-2.55-39.08-.79C92.73,63,76.27,74.78,68.09,91.81a59.71,59.71,0,0,0-5.39,15.74c-1,4.35-1.09,6.41-1.13,16.07,0,12.12.44,15.65,3.14,24A59.81,59.81,0,0,0,94.79,182.5c12.24,6,25,8.2,42.35,7.26,21.65-1.17,37-6.2,56.94-18.77Z"/>
		</g>
	</g>
</svg>
